<svg width="110" height="121" viewBox="0 0 110 121" fill="none" xmlns="http://www.w3.org/2000/svg">
<path d="M10.8522 110.657V95.9581H17.1874C17.9051 95.9581 18.5676 96.103 19.1749 96.3929C19.7822 96.6827 20.3067 97.0726 20.7484 97.5626C21.19 98.0526 21.5316 98.6012 21.7732 99.2085C22.0147 99.8158 22.1355 100.43 22.1355 101.051C22.1355 101.921 21.9319 102.742 21.5247 103.515C21.1176 104.288 20.5517 104.919 19.8271 105.409C19.1025 105.899 18.2571 106.144 17.2909 106.144H14.8893V110.657H10.8522ZM14.8893 102.625H17.0218C17.1874 102.625 17.3461 102.576 17.4979 102.48C17.6498 102.383 17.7774 102.217 17.881 101.983C17.9845 101.748 18.0362 101.438 18.0362 101.051C18.0362 100.637 17.9776 100.316 17.8603 100.088C17.7429 99.8607 17.598 99.7019 17.4255 99.6122C17.253 99.5225 17.0839 99.4777 16.9183 99.4777H14.8893V102.625ZM23.9571 110.657V95.9581H27.9942V110.657H23.9571ZM35.5909 110.657V95.9581H42.3402C43.0579 95.9581 43.7205 96.103 44.3278 96.3929C44.9351 96.6827 45.4595 97.0726 45.9012 97.5626C46.3429 98.0526 46.6845 98.6012 46.926 99.2085C47.1676 99.8158 47.2883 100.43 47.2883 101.051C47.2883 101.617 47.2055 102.162 47.0399 102.687C46.8743 103.211 46.6327 103.691 46.3153 104.126C45.9978 104.56 45.6183 104.936 45.1766 105.254L48.2821 110.657H43.8516L41.2637 106.144H39.6281V110.657H35.5909ZM39.6281 102.625H42.1746C42.3402 102.625 42.499 102.562 42.6508 102.438C42.8026 102.314 42.9303 102.135 43.0338 101.9C43.1373 101.665 43.1891 101.382 43.1891 101.051C43.1891 100.706 43.1304 100.42 43.0131 100.192C42.8958 99.9642 42.7508 99.7882 42.5783 99.664C42.4058 99.5398 42.2367 99.4777 42.0711 99.4777H39.6281V102.625ZM60.2484 107.138V110.657H49.7725V95.9581H60.062V99.4777H53.8096V101.548H59.1511V104.819H53.8096V107.138H60.2484ZM65.3204 95.9581L67.9497 101.962L70.6411 95.9581H75.0302L69.9579 105.792V110.657H65.9415V105.751L60.952 95.9581H65.3204ZM86.8095 107.138V110.657H76.3336V95.9581H86.6232V99.4777H80.3708V101.548H85.7122V104.819H80.3708V107.138H86.8095ZM97.8027 100.761C97.8027 100.761 97.6853 100.692 97.4507 100.554C97.2161 100.416 96.9055 100.261 96.5191 100.088C96.1326 99.9159 95.7116 99.7606 95.2562 99.6226C94.8007 99.4846 94.3521 99.4155 93.9104 99.4155C93.5654 99.4155 93.2824 99.4707 93.0616 99.5812C92.8408 99.6916 92.7303 99.8779 92.7303 100.14C92.7303 100.389 92.8408 100.589 93.0616 100.741C93.2824 100.892 93.5964 101.03 94.0036 101.155C94.4108 101.279 94.8973 101.431 95.4632 101.61C96.3741 101.886 97.1609 102.204 97.8234 102.562C98.4859 102.921 98.9966 103.38 99.3554 103.939C99.7143 104.498 99.8937 105.24 99.8937 106.165C99.8937 107.048 99.735 107.79 99.4175 108.39C99.1001 108.991 98.6722 109.47 98.1339 109.829C97.5956 110.188 96.9952 110.447 96.3327 110.606C95.6702 110.764 94.9939 110.844 94.3038 110.844C93.5999 110.844 92.8649 110.771 92.0989 110.626C91.3329 110.481 90.591 110.281 89.8733 110.026C89.1556 109.771 88.5 109.47 87.9065 109.125L89.6455 105.585C89.6455 105.585 89.7836 105.668 90.0596 105.834C90.3357 105.999 90.7014 106.186 91.1569 106.393C91.6124 106.6 92.1196 106.786 92.6786 106.952C93.2376 107.117 93.8 107.2 94.3659 107.2C94.8076 107.2 95.1147 107.141 95.2872 107.024C95.4597 106.907 95.546 106.751 95.546 106.558C95.546 106.268 95.3942 106.044 95.0905 105.885C94.7869 105.727 94.3901 105.575 93.9001 105.43C93.4101 105.285 92.8684 105.116 92.2749 104.923C91.4191 104.633 90.7152 104.305 90.1631 103.939C89.611 103.573 89.2039 103.139 88.9416 102.635C88.6794 102.131 88.5483 101.52 88.5483 100.803C88.5483 99.7123 88.8036 98.8013 89.3143 98.0698C89.825 97.3383 90.4978 96.7828 91.3329 96.4032C92.1679 96.0236 93.0685 95.8339 94.0347 95.8339C94.7524 95.8339 95.4459 95.9201 96.1153 96.0927C96.7848 96.2652 97.4127 96.4757 97.9993 96.7241C98.5859 96.9725 99.1001 97.2072 99.5417 97.428L97.8027 100.761Z" fill="black"/>
<mask id="mask0_207_15" style="mask-type:luminance" maskUnits="userSpaceOnUse" x="15" y="9" width="80" height="80">
<path d="M15.6724 9.59009H94.3255V88.2432H15.6724V9.59009Z" fill="white"/>
</mask>
<g mask="url(#mask0_207_15)">
<path d="M15.6724 48.9167C15.6724 27.1972 33.2795 9.59009 54.9989 9.59009C76.7184 9.59009 94.3255 27.1972 94.3255 48.9167C94.3255 70.6361 76.7184 88.2432 54.9989 88.2432C33.2795 88.2432 15.6724 70.6361 15.6724 48.9167ZM17.2454 48.9167C17.2454 69.7674 34.1482 86.6702 54.9989 86.6702C75.8496 86.6702 92.7525 69.7674 92.7525 48.9167C92.7525 28.066 75.8496 11.1632 54.9989 11.1632C34.1482 11.1632 17.2454 28.066 17.2454 48.9167Z" fill="#B9625D"/>
<mask id="mask1_207_15" style="mask-type:luminance" maskUnits="userSpaceOnUse" x="37" y="29" width="36" height="40">
<path d="M37.7657 29.254H72.2312V68.5806H37.7657V29.254Z" fill="white"/>
</mask>
<g mask="url(#mask1_207_15)">
<path d="M41.4057 32.0495C41.8871 32.0859 42.3671 32.1084 42.8456 32.1304C43.3423 32.1531 43.8374 32.1752 44.3308 32.2118C44.5772 32.23 44.823 32.2537 45.0684 32.281C44.1572 31.8069 42.3372 31.1375 40.3352 31.9428L40.3501 31.9449C40.7029 31.9902 41.0545 32.0234 41.4057 32.0495Z" fill="#B9625D"/>
</g>
<mask id="mask2_207_15" style="mask-type:luminance" maskUnits="userSpaceOnUse" x="37" y="29" width="36" height="40">
<path d="M37.7657 29.254H72.2312V68.5806H37.7657V29.254Z" fill="white"/>
</mask>
<g mask="url(#mask2_207_15)">
<path d="M42.6222 34.8699C43.0705 34.8943 43.5177 34.9181 43.9634 34.9525C44.2821 34.9769 44.6008 35.0067 44.9179 35.0461C45.7067 35.133 46.4844 35.3019 47.2383 35.55C47.8448 35.7572 48.4192 36.0485 48.9448 36.4153C48.9627 36.5701 48.976 36.7256 48.9879 36.8812C48.2077 36.6347 47.4109 36.4443 46.6036 36.3116C45.9495 36.1973 45.2933 36.0959 44.639 35.9957C43.954 35.8909 43.2717 35.7841 42.596 35.6674C42.4457 35.8486 42.2985 36.0324 42.1543 36.2186C42.2199 36.2226 42.2856 36.2272 42.351 36.2311C42.8288 36.2595 43.3053 36.2858 43.7804 36.3231C44.0953 36.3477 44.4095 36.3773 44.723 36.4155C45.5018 36.5003 46.2702 36.6622 47.017 36.8989C47.7334 37.1344 48.4073 37.4838 49.0126 37.9336C49.0335 37.949 49.0533 37.9655 49.0742 37.9811C49.0862 38.0919 49.1006 38.2022 49.1173 38.3119C49.0793 38.299 49.0411 38.2864 49.0033 38.2733C48.2205 38.0281 47.4215 37.838 46.6122 37.7046C45.9646 37.5911 45.3148 37.4898 44.6669 37.3896C43.7117 37.242 42.7608 37.0901 41.8263 36.9122C41.7712 36.9018 41.7167 36.8903 41.6617 36.8796C41.5095 37.0925 41.3612 37.3081 41.2168 37.5264C41.5405 37.5535 41.8637 37.5774 42.1865 37.598C42.658 37.6281 43.1284 37.6559 43.5971 37.6935C43.908 37.7183 44.2183 37.7473 44.5279 37.7846C45.2966 37.8672 46.0559 38.0222 46.7955 38.2476C47.5039 38.4713 48.1734 38.8034 48.78 39.2322C49.0674 39.4349 49.3445 39.6486 49.6157 39.8697C49.4094 39.7921 49.1979 39.7273 48.9897 39.6562C48.2133 39.4174 47.4218 39.2309 46.6206 39.098C45.9793 38.9852 45.3361 38.8841 44.6946 38.7839C43.7492 38.6363 42.8081 38.4833 41.8824 38.3058C41.537 38.2399 41.1945 38.1689 40.8549 38.0927C40.7057 38.3341 40.5617 38.5783 40.4229 38.8251C40.5061 38.8344 40.5893 38.8446 40.6724 38.853C41.1228 38.8998 41.5727 38.9337 42.0219 38.9648C42.4871 38.9969 42.951 39.0259 43.4142 39.0638C43.7212 39.0889 44.0275 39.1176 44.3332 39.1538C45.092 39.2343 45.842 39.3823 46.5744 39.5963C47.2749 39.8083 47.94 40.1233 48.5478 40.5309C48.863 40.7423 49.1662 40.9669 49.4633 41.1992C49.3015 41.1441 49.1384 41.0922 48.9766 41.0387C48.2068 40.8061 47.4228 40.6231 46.6295 40.4908C45.9946 40.3788 45.3579 40.2779 44.723 40.1776C43.7872 40.03 42.8561 39.8759 41.9393 39.6989C41.3379 39.5836 40.7438 39.4547 40.161 39.3044C40.019 39.5723 39.883 39.8427 39.753 40.1156C40.0107 40.1529 40.2688 40.1861 40.5264 40.2137C40.9707 40.2626 41.4148 40.2988 41.8576 40.3318C42.3165 40.3657 42.7745 40.3963 43.2314 40.4343C43.5344 40.4595 43.8368 40.4878 44.1386 40.5231C44.8874 40.6013 45.6283 40.7425 46.3534 40.945C47.0462 41.1454 47.7069 41.4433 48.3157 41.8297C48.6652 42.052 49.0006 42.2908 49.3294 42.5376C49.2073 42.4986 49.0853 42.4605 48.9632 42.4213C48.1998 42.1952 47.4233 42.0157 46.6381 41.8838C46.0096 41.7726 45.3795 41.6719 44.7511 41.5719C43.8253 41.4243 42.9037 41.2691 41.9958 41.0925C41.2443 40.9472 40.5032 40.7836 39.7815 40.5834C39.7088 40.564 39.6368 40.5432 39.5645 40.5223C39.4334 40.8139 39.3091 41.1078 39.1916 41.4039C39.2676 41.4175 39.3437 41.4318 39.4197 41.4442C39.7398 41.496 40.0599 41.5383 40.3798 41.5746C40.8178 41.6256 41.2556 41.664 41.6929 41.6988C42.1454 41.7346 42.5973 41.7666 43.0481 41.8048C43.3471 41.8302 43.6455 41.8582 43.9432 41.8924C44.6821 41.9685 45.4139 42.1027 46.1317 42.2938C46.5585 42.412 46.9747 42.5655 47.376 42.7529C47.6029 42.5959 47.8354 42.439 48.0781 42.2823C48.3149 42.6573 48.5033 43.0607 48.6388 43.483C48.8365 43.6145 49.0314 43.7497 49.2234 43.8885C49.132 43.8604 49.0403 43.8327 48.9494 43.8042C48.8729 43.781 48.7956 43.7616 48.7188 43.7398C48.8492 44.1998 48.9412 44.6699 48.9938 45.1452L49.0006 45.2062C49.0374 45.529 49.055 45.8538 49.0534 46.1787C49.3021 46.0323 49.5392 45.867 49.7627 45.6844C49.8285 45.6307 49.8915 45.5759 49.9526 45.5207C50.1682 45.3273 50.3663 45.1151 50.5445 44.8867C50.6384 44.7657 50.724 44.643 50.8029 44.519C50.9161 44.3414 51.0176 44.1567 51.1066 43.9659C51.1872 43.7918 51.2576 43.6132 51.3177 43.431C51.3763 43.2551 51.4258 43.0762 51.4659 42.8952C51.514 42.675 51.5494 42.4522 51.5717 42.2279C51.5853 42.0964 51.5939 41.9681 51.5988 41.844C51.6476 41.2282 51.6183 40.8861 51.5707 40.6485C52.045 40.4047 52.5572 40.1978 53.0494 39.9127C60.7119 35.4756 58.5407 30.7897 58.5407 30.7897C58.5407 30.7897 55.5314 27.6822 49.5296 30.3082C48.6812 30.6857 47.8654 31.1327 47.0906 31.6445C46.8632 31.7928 46.6388 31.9454 46.4173 32.1023C46.3666 32.138 46.3156 32.1731 46.2649 32.2092C46.1738 32.2753 46.0846 32.3434 45.9945 32.4112C46.2324 32.453 46.4682 32.5021 46.7019 32.5585C47.1311 32.9249 47.5198 33.3361 47.8616 33.7852C47.4386 33.6844 47.0123 33.6009 46.586 33.525C45.9192 33.4092 45.2501 33.3074 44.5826 33.2073C43.5977 33.0597 42.6177 32.9111 41.6565 32.7319C40.9744 32.6056 40.3038 32.4576 39.6509 32.2733C39.2905 32.48 38.9508 32.7207 38.6362 32.9922C39.156 33.128 39.6837 33.2313 40.2163 33.3013C40.5641 33.3476 40.9115 33.382 41.2582 33.4098C41.7333 33.4483 42.2076 33.4731 42.68 33.4969C43.1704 33.5215 43.6593 33.545 44.1464 33.5818C44.4694 33.6061 44.7915 33.6361 45.1127 33.6767C45.9117 33.7659 46.6986 33.9418 47.4595 34.2011C47.7828 34.3159 48.0967 34.4553 48.3986 34.6182C48.5295 34.8593 48.6395 35.1111 48.7276 35.3709C48.7324 35.3853 48.7358 35.3998 48.7404 35.4142C48.0361 35.2049 47.3195 35.0393 46.5947 34.9186C45.9343 34.8033 45.2715 34.702 44.6107 34.6019C43.6359 34.4539 42.6656 34.3042 41.7133 34.1254C40.9298 33.9852 40.1545 33.8024 39.3909 33.5777C39.1798 33.5159 38.9741 33.4428 38.7651 33.3769C38.6368 33.3265 38.5098 33.2738 38.3825 33.2215C38.1658 33.4251 37.9597 33.6399 37.7653 33.8649C37.5708 34.09 41.1 33.7649 42.6222 34.8699Z" fill="#B9625D"/>
</g>
<mask id="mask3_207_15" style="mask-type:luminance" maskUnits="userSpaceOnUse" x="37" y="29" width="36" height="40">
<path d="M37.7657 29.254H72.2312V68.5806H37.7657V29.254Z" fill="white"/>
</mask>
<g mask="url(#mask3_207_15)">
<path d="M46.1089 43.6976C46.2827 43.5571 46.4625 43.4169 46.6485 43.2772C46.0264 43.1667 45.401 43.0661 44.779 42.9658C43.8635 42.8182 42.9513 42.6619 42.0522 42.4857C41.3089 42.3409 40.5752 42.179 39.8596 41.9843C39.64 41.9271 39.4241 41.863 39.2059 41.8041C39.1562 41.7877 39.1069 41.7702 39.0573 41.7538C38.9406 42.0661 38.8318 42.3803 38.7311 42.6964C38.9163 42.7342 39.1018 42.7699 39.2872 42.8012C39.6027 42.854 39.9183 42.8976 40.2336 42.9353C40.6656 42.9884 41.0973 43.0291 41.5289 43.0657C41.9751 43.1034 42.4208 43.1369 42.8656 43.1753C43.1606 43.2008 43.4551 43.2285 43.7491 43.2616C44.4782 43.3356 45.2008 43.4629 45.9112 43.6425C45.9773 43.6596 46.0432 43.6786 46.1089 43.6976Z" fill="#B9625D"/>
</g>
<mask id="mask4_207_15" style="mask-type:luminance" maskUnits="userSpaceOnUse" x="37" y="29" width="36" height="40">
<path d="M37.7657 29.254H72.2312V68.5806H37.7657V29.254Z" fill="white"/>
</mask>
<g mask="url(#mask4_207_15)">
<path d="M39.9393 43.3848C39.7183 43.3284 39.5007 43.2659 39.2809 43.2081C39.1086 43.153 38.9372 43.0962 38.7655 43.0396C38.7242 43.0239 38.6823 43.0091 38.6407 42.9939C38.5406 43.328 38.45 43.6636 38.3689 44.0007C38.6308 44.06 38.8932 44.1124 39.156 44.1579C39.4669 44.2115 39.7779 44.2565 40.0889 44.2956C40.5145 44.3508 40.9403 44.3937 41.3657 44.4322C41.8056 44.4718 42.2452 44.5068 42.6839 44.5453C42.9749 44.571 43.2655 44.5982 43.5556 44.6305C43.9952 44.6789 44.4326 44.7398 44.864 44.8172C44.9916 44.6887 45.1226 44.5607 45.2595 44.4333C45.1092 44.4087 44.9588 44.384 44.8086 44.3593C43.9026 44.2117 43.0005 44.0541 42.1103 43.8786C41.3751 43.7342 40.6486 43.5742 39.9393 43.3848Z" fill="#B9625D"/>
</g>
<mask id="mask5_207_15" style="mask-type:luminance" maskUnits="userSpaceOnUse" x="37" y="29" width="36" height="40">
<path d="M37.7657 29.254H72.2312V68.5806H37.7657V29.254Z" fill="white"/>
</mask>
<g mask="url(#mask5_207_15)">
<path d="M40.0175 44.7852C39.795 44.7296 39.5757 44.6685 39.3545 44.6119C39.1833 44.559 39.0129 44.5047 38.8425 44.4506C38.6762 44.3904 38.5064 44.3353 38.3407 44.2735L38.3084 44.2609C38.229 44.6135 38.1604 44.9668 38.1027 45.3207C38.4086 45.3944 38.7155 45.459 39.0232 45.5142C39.3295 45.5688 39.636 45.615 39.9424 45.6556C40.3619 45.7129 40.7817 45.7581 41.2011 45.7984C41.6347 45.8399 42.0681 45.8761 42.5008 45.9151C42.7878 45.9409 43.0745 45.9678 43.3607 45.999C43.5062 46.0147 43.6514 46.0323 43.7964 46.0503C43.9008 45.9094 44.009 45.7692 44.1236 45.6298C43.4677 45.5169 42.8137 45.3993 42.1667 45.271C41.4397 45.1273 40.7209 44.9691 40.0175 44.7852Z" fill="#B9625D"/>
</g>
<mask id="mask6_207_15" style="mask-type:luminance" maskUnits="userSpaceOnUse" x="37" y="29" width="36" height="40">
<path d="M37.7657 29.254H72.2312V68.5806H37.7657V29.254Z" fill="white"/>
</mask>
<g mask="url(#mask6_207_15)">
<path d="M38.8899 46.8714C39.1916 46.9269 39.4935 46.9744 39.7955 47.0165C40.2091 47.0759 40.6228 47.1234 41.0365 47.1657C41.4637 47.2091 41.8909 47.2468 42.3176 47.286C42.5418 47.3065 42.7659 47.3283 42.9897 47.3515C43.0726 47.187 43.1617 47.0239 43.2569 46.8624C42.9111 46.7983 42.5658 46.7336 42.2229 46.665C41.5041 46.5216 40.7927 46.3651 40.0952 46.1867C39.8714 46.1318 39.6503 46.0723 39.4276 46.0172C39.2576 45.9666 39.0882 45.9146 38.919 45.863C38.7533 45.8059 38.5846 45.7533 38.4196 45.6948C38.302 45.65 38.183 45.6067 38.0652 45.5615C38.0103 45.929 37.9677 46.2968 37.9376 46.6648C38.254 46.7434 38.5715 46.8122 38.8899 46.8714Z" fill="#B9625D"/>
</g>
<mask id="mask7_207_15" style="mask-type:luminance" maskUnits="userSpaceOnUse" x="37" y="29" width="36" height="40">
<path d="M37.7657 29.254H72.2312V68.5806H37.7657V29.254Z" fill="white"/>
</mask>
<g mask="url(#mask7_207_15)">
<path d="M39.6488 48.3784C40.0557 48.4398 40.4636 48.4896 40.8713 48.5335C41.2922 48.5787 41.7132 48.6177 42.1338 48.6572C42.2423 48.6674 42.35 48.6785 42.4582 48.6888C42.5138 48.5004 42.5777 48.3145 42.6473 48.1304C42.5247 48.1062 42.401 48.0838 42.2787 48.0592C41.5679 47.9162 40.864 47.7616 40.1726 47.5886C39.9474 47.5343 39.7246 47.4764 39.5004 47.4222C39.3315 47.3738 39.1632 47.3243 38.995 47.2751C38.83 47.2209 38.6623 47.1711 38.498 47.1159C38.3359 47.0576 38.1705 47.0031 38.0105 46.9416C37.9801 46.9309 37.9495 46.9202 37.919 46.9094C37.8939 47.2867 37.8822 47.663 37.884 48.0383C38.1741 48.11 38.465 48.1738 38.7568 48.2296C39.0538 48.2861 39.3513 48.335 39.6488 48.3784Z" fill="#B9625D"/>
</g>
<mask id="mask8_207_15" style="mask-type:luminance" maskUnits="userSpaceOnUse" x="37" y="29" width="36" height="40">
<path d="M37.7657 29.254H72.2312V68.5806H37.7657V29.254Z" fill="white"/>
</mask>
<g mask="url(#mask8_207_15)">
<path d="M39.5021 49.7377C39.9031 49.8012 40.3047 49.853 40.7065 49.899C41.1212 49.9462 41.536 49.9866 41.9505 50.0263C42.0275 50.0336 42.1043 50.0414 42.1811 50.0488C42.2054 49.8426 42.2369 49.6392 42.2756 49.4384C41.5931 49.2993 40.9163 49.151 40.2503 48.988C40.0236 48.9348 39.7992 48.8782 39.5734 48.8253C39.4057 48.7791 39.2385 48.7321 39.0716 48.6854C38.9073 48.6344 38.7406 48.587 38.577 48.535C38.4152 48.4804 38.2505 48.4289 38.0905 48.3716C38.0227 48.3491 37.9549 48.3268 37.8871 48.3044C37.8956 48.6846 37.9185 49.0629 37.9557 49.4393C38.178 49.4921 38.4006 49.5407 38.6237 49.5852C38.9162 49.6426 39.2095 49.6925 39.5021 49.7377Z" fill="#B9625D"/>
</g>
<mask id="mask9_207_15" style="mask-type:luminance" maskUnits="userSpaceOnUse" x="37" y="29" width="36" height="40">
<path d="M37.7657 29.254H72.2312V68.5806H37.7657V29.254Z" fill="white"/>
</mask>
<g mask="url(#mask9_207_15)">
<path d="M39.3573 51.0996C39.7521 51.1653 40.1477 51.2196 40.5435 51.2672C40.9519 51.3162 41.3605 51.358 41.7691 51.3979C41.8877 51.4096 42.0064 51.4211 42.1249 51.4326C42.1188 51.215 42.1195 51.0006 42.1268 50.7892C41.5226 50.6634 40.9222 50.5315 40.3301 50.3905C40.102 50.338 39.8757 50.2829 39.6486 50.2311C39.4819 50.1872 39.3159 50.1426 39.1498 50.0983C38.9862 50.0503 38.8205 50.0055 38.6575 49.9568C38.496 49.9058 38.332 49.8576 38.1722 49.8042C38.1122 49.7855 38.0519 49.7668 37.9915 49.7483C38.0375 50.1268 38.0977 50.5029 38.1746 50.8754C38.2805 50.8988 38.3866 50.9219 38.4927 50.9432C38.7805 51.0018 39.0686 51.0532 39.3573 51.0996Z" fill="#B9625D"/>
</g>
<mask id="mask10_207_15" style="mask-type:luminance" maskUnits="userSpaceOnUse" x="37" y="29" width="36" height="40">
<path d="M37.7657 29.254H72.2312V68.5806H37.7657V29.254Z" fill="white"/>
</mask>
<g mask="url(#mask10_207_15)">
<path d="M51.9319 57.377C51.9877 57.3301 52.0433 57.285 52.0987 57.2408C52.3574 57.0331 52.6292 56.8422 52.9125 56.6695C53.059 56.5806 53.2034 56.5 53.3448 56.4279C53.6049 56.2953 53.875 56.1835 54.1526 56.0934C54.425 56.0045 54.7049 55.9406 54.9889 55.9024C56.3661 55.7228 57.2336 56.2718 57.2336 56.2718C57.2336 56.2718 57.2125 56.2121 57.1683 56.1086C57.1189 55.9929 57.0403 55.8223 56.9287 55.6166C56.7607 55.3071 56.5688 55.0111 56.3548 54.7314C55.9544 54.2024 55.4676 53.7448 54.9149 53.3778C54.6633 53.2129 54.3978 53.0703 54.1215 52.9515C53.4482 52.6661 52.724 52.5204 51.9928 52.5234C51.6264 52.5225 51.2605 52.5512 50.8987 52.6089C50.8173 52.6218 50.7382 52.6374 50.6589 52.6526C50.5332 52.6768 50.4098 52.7035 50.2895 52.7334C49.7982 52.8553 49.3226 53.0336 48.8722 53.2646C49.1715 53.4129 49.4689 53.5673 49.7645 53.7279C49.6935 53.7088 49.5837 53.6701 49.5211 53.6553C49.3009 53.5943 49.0787 53.5389 48.8576 53.4826C48.7684 53.46 48.6789 53.4397 48.5895 53.4182C48.2668 53.6046 47.959 53.8157 47.6689 54.0497C47.7553 54.0853 47.8419 54.1204 47.928 54.157C48.5152 54.4016 49.0949 54.6706 49.6671 54.964C49.8308 55.0474 49.9935 55.1353 50.1565 55.2223C50.1155 55.2099 50.0745 55.1974 50.0336 55.1848C49.9901 55.1716 49.9469 55.1582 49.9032 55.1454C49.8672 55.1369 49.8077 55.1164 49.7717 55.108C49.7 55.091 49.5813 55.0503 49.5096 55.0334C49.2887 54.9741 49.066 54.92 48.8443 54.8653C48.282 54.7272 47.7156 54.6106 47.1489 54.5025C46.9714 54.6701 46.8035 54.8421 46.6428 55.0159C46.9979 55.1315 47.3494 55.2563 47.6974 55.3901C48.2877 55.6129 48.8704 55.8606 49.4455 56.1332C49.6922 56.2496 49.9379 56.3702 50.1825 56.495C50.358 56.5828 50.5339 56.6732 50.7096 56.7626C50.6522 56.7447 50.5954 56.726 50.5381 56.7084C50.3665 56.6545 50.1922 56.6056 50.0186 56.5552C49.9754 56.5429 49.9323 56.5302 49.889 56.5181C49.8513 56.5092 49.7961 56.491 49.7585 56.4824C49.6835 56.4647 49.5733 56.4292 49.4983 56.4116C49.2766 56.3542 49.0535 56.3012 48.8311 56.2483C48.1326 56.0821 47.429 55.9443 46.7258 55.8143C46.5021 55.7732 46.2783 55.7328 46.0545 55.6931C45.9399 55.8323 45.829 55.9699 45.7216 56.1059L45.7614 56.115C46.3394 56.2586 46.9061 56.4297 47.4665 56.6229C48.0598 56.8239 48.6455 57.0504 49.2236 57.3022C49.4716 57.4099 49.7183 57.5221 49.9639 57.6387C50.3005 57.7951 50.6362 57.9562 50.9734 58.1173L51.0242 58.1414C51.2194 57.9999 51.406 57.847 51.5831 57.6834C51.7003 57.5747 51.8166 57.4739 51.9319 57.377Z" fill="#B9625D"/>
</g>
<mask id="mask11_207_15" style="mask-type:luminance" maskUnits="userSpaceOnUse" x="37" y="29" width="36" height="40">
<path d="M37.7657 29.254H72.2312V68.5806H37.7657V29.254Z" fill="white"/>
</mask>
<g mask="url(#mask11_207_15)">
<path d="M40.3789 52.6341C40.781 52.6849 41.1835 52.7282 41.586 52.7684C41.8075 52.7905 42.0289 52.8116 42.2506 52.833C42.2181 52.6121 42.1916 52.3944 42.171 52.1798C41.579 52.0557 40.9902 51.927 40.4083 51.7916C40.1789 51.7398 39.951 51.6863 39.7222 51.6356C39.5567 51.594 39.3915 51.5522 39.2266 51.5101C39.0639 51.4652 38.8992 51.4229 38.7368 51.3775C38.5762 51.33 38.4136 51.2853 38.2544 51.2361C38.342 51.6087 38.4459 51.9771 38.5663 52.3415C38.7811 52.384 38.996 52.4243 39.2112 52.4605C39.5994 52.5284 39.9889 52.5846 40.3789 52.6341Z" fill="#B9625D"/>
</g>
<mask id="mask12_207_15" style="mask-type:luminance" maskUnits="userSpaceOnUse" x="37" y="29" width="36" height="40">
<path d="M37.7657 29.254H72.2312V68.5806H37.7657V29.254Z" fill="white"/>
</mask>
<g mask="url(#mask12_207_15)">
<path d="M41.4017 54.139C41.6648 54.1661 41.9278 54.1907 42.1907 54.2157C42.3068 54.2268 42.4228 54.2379 42.5387 54.2491C42.4823 54.0417 42.4312 53.8277 42.3851 53.6071C41.7473 53.4737 41.1139 53.3356 40.485 53.1928C40.2544 53.1418 40.0245 53.0898 39.7942 53.0402C39.6298 53.0009 39.4658 52.9614 39.302 52.9218C39.1398 52.88 38.9765 52.8404 38.8144 52.7981C38.7811 52.7891 38.7477 52.78 38.7144 52.771C38.8478 53.1321 38.9982 53.488 39.1656 53.8386C39.5141 53.9004 39.8633 53.9547 40.2133 54.0014C40.609 54.0539 41.0053 54.0986 41.4017 54.139Z" fill="#B9625D"/>
</g>
<mask id="mask13_207_15" style="mask-type:luminance" maskUnits="userSpaceOnUse" x="37" y="29" width="36" height="40">
<path d="M37.7657 29.254H72.2312V68.5806H37.7657V29.254Z" fill="white"/>
</mask>
<g mask="url(#mask13_207_15)">
<path d="M41.9959 55.5848C42.3494 55.6175 42.7024 55.6495 43.0538 55.6847C42.9642 55.4898 42.8802 55.2868 42.8017 55.0758C42.7214 55.059 42.6409 55.0426 42.5608 55.0257C41.8906 54.8852 41.2239 54.7396 40.5628 54.5937C40.3305 54.5435 40.0991 54.493 39.8673 54.4445C39.7181 54.4105 39.5691 54.3766 39.4202 54.3428C39.606 54.6903 39.8101 55.0312 40.0323 55.3655L40.0484 55.3679C40.4379 55.4225 40.8283 55.4686 41.2183 55.5093C41.4777 55.5363 41.7368 55.5607 41.9959 55.5848Z" fill="#B9625D"/>
</g>
<mask id="mask14_207_15" style="mask-type:luminance" maskUnits="userSpaceOnUse" x="37" y="29" width="36" height="40">
<path d="M37.7657 29.254H72.2312V68.5806H37.7657V29.254Z" fill="white"/>
</mask>
<g mask="url(#mask14_207_15)">
<path d="M50.0034 57.9251C49.9604 57.9135 49.9175 57.9017 49.8745 57.8903C49.8352 57.8811 49.7843 57.8658 49.745 57.8564C49.6667 57.838 49.565 57.8076 49.4868 57.7892C49.2643 57.7338 49.0408 57.6819 48.8177 57.6306C48.1256 57.4714 47.4298 57.3359 46.7344 57.2073C46.1832 57.1056 45.632 57.0081 45.0816 56.9089C44.9761 57.0373 44.8723 57.1594 44.7697 57.2739C45.0248 57.3151 45.2783 57.3605 45.5296 57.4139C46.1063 57.5365 46.6752 57.6839 47.2361 57.8562C47.8325 58.0353 48.4212 58.2405 49.0024 58.4717C49.2516 58.5707 49.4994 58.6743 49.7459 58.7826L49.8128 58.8118C50.2152 58.6522 50.5972 58.4455 50.9509 58.1958C50.8081 58.1526 50.6648 58.1102 50.5207 58.0686C50.3492 58.0186 50.1759 57.9723 50.0034 57.9251Z" fill="#B9625D"/>
</g>
<mask id="mask15_207_15" style="mask-type:luminance" maskUnits="userSpaceOnUse" x="37" y="29" width="36" height="40">
<path d="M37.7657 29.254H72.2312V68.5806H37.7657V29.254Z" fill="white"/>
</mask>
<g mask="url(#mask15_207_15)">
<path d="M42.6192 56.4183C41.9571 56.2782 41.2979 56.1345 40.6428 55.994C40.5783 55.9804 40.5139 55.9673 40.4497 55.9537C40.7199 56.3162 40.9733 56.6302 41.2101 56.8957C41.4076 56.9161 41.6051 56.9354 41.8027 56.9533C42.438 57.0104 43.0728 57.0601 43.7008 57.1292C43.7843 57.1383 43.867 57.1489 43.9502 57.1589C43.8112 56.9839 43.6812 56.802 43.5605 56.614C43.2462 56.5498 42.9325 56.4846 42.6192 56.4183Z" fill="#B9625D"/>
</g>
<mask id="mask16_207_15" style="mask-type:luminance" maskUnits="userSpaceOnUse" x="37" y="29" width="36" height="40">
<path d="M37.7657 29.254H72.2312V68.5806H37.7657V29.254Z" fill="white"/>
</mask>
<g mask="url(#mask16_207_15)">
<path d="M46.7421 58.6007C46.2298 58.5058 45.7175 58.414 45.2059 58.3208C46.3184 59.0648 47.6832 59.3301 48.9934 59.0572C48.93 59.043 48.8668 59.0277 48.8035 59.0137C48.1177 58.8613 47.4298 58.7282 46.7421 58.6007Z" fill="#B9625D"/>
</g>
<mask id="mask17_207_15" style="mask-type:luminance" maskUnits="userSpaceOnUse" x="37" y="29" width="36" height="40">
<path d="M37.7657 29.254H72.2312V68.5806H37.7657V29.254Z" fill="white"/>
</mask>
<g mask="url(#mask17_207_15)">
<path d="M42.0081 57.6688C42.7388 58.2486 43.3121 58.31 43.8375 58.0554C43.4493 57.976 43.0618 57.8946 42.6749 57.8112C42.4523 57.7641 42.23 57.7166 42.0081 57.6688Z" fill="#B9625D"/>
</g>
<mask id="mask18_207_15" style="mask-type:luminance" maskUnits="userSpaceOnUse" x="37" y="29" width="36" height="40">
<path d="M37.7657 29.254H72.2312V68.5806H37.7657V29.254Z" fill="white"/>
</mask>
<g mask="url(#mask18_207_15)">
<path d="M68.5915 65.7853C68.11 65.7489 67.6301 65.7264 67.1516 65.7044C66.6548 65.6817 66.1597 65.6596 65.6665 65.6231C65.42 65.6048 65.1743 65.5812 64.9288 65.5538C65.8399 66.0279 67.6596 66.6973 69.6618 65.892L69.6469 65.8899C69.2945 65.8443 68.9426 65.8111 68.5915 65.7853Z" fill="#B9625D"/>
</g>
<mask id="mask19_207_15" style="mask-type:luminance" maskUnits="userSpaceOnUse" x="37" y="29" width="36" height="40">
<path d="M37.7657 29.254H72.2312V68.5806H37.7657V29.254Z" fill="white"/>
</mask>
<g mask="url(#mask19_207_15)">
<path d="M67.3734 62.964C66.9251 62.9397 66.4779 62.9158 66.0322 62.8816C65.7135 62.857 65.3951 62.8273 65.0778 62.788C64.2889 62.701 63.5112 62.5321 62.7573 62.284C62.1508 62.0768 61.5764 61.7855 61.0508 61.4187C61.0329 61.2639 61.0196 61.1084 61.0077 60.9527C61.7878 61.1993 62.5846 61.3897 63.392 61.5224C64.0461 61.6366 64.7024 61.7381 65.3566 61.8383C66.0416 61.943 66.7239 62.0499 67.3997 62.1665C67.5499 61.9853 67.6971 61.8016 67.8413 61.6154C67.7757 61.6113 67.7101 61.6068 67.6446 61.6029C67.1668 61.5745 66.6903 61.5481 66.2152 61.5109C65.9003 61.4862 65.5861 61.4567 65.2726 61.4185C64.4938 61.3337 63.7254 61.1718 62.9786 60.9351C62.2622 60.6996 61.5883 60.3503 60.983 59.9005C60.9621 59.885 60.9423 59.8685 60.9215 59.853C60.9094 59.7422 60.895 59.6319 60.8783 59.5221C60.9163 59.5349 60.9545 59.5476 60.9924 59.5607C61.7751 59.8059 62.5741 59.9959 63.3834 60.1294C64.0311 60.2429 64.6808 60.3442 65.3287 60.4444C66.2839 60.592 67.2348 60.7439 68.1693 60.9218C68.2244 60.9323 68.2789 60.9437 68.3339 60.9544C68.4862 60.7414 68.6345 60.5258 68.7788 60.3076C68.4552 60.2805 68.132 60.2566 67.8091 60.2361C67.3376 60.2058 66.8673 60.178 66.3985 60.1406C66.0876 60.1157 65.7773 60.0863 65.4677 60.0494C64.699 59.9668 63.9397 59.8118 63.2001 59.5865C62.4917 59.3627 61.8223 59.0306 61.2156 58.6018C60.9282 58.3991 60.6511 58.1854 60.38 57.9644C60.5862 58.0419 60.7977 58.1071 61.006 58.1778C61.7823 58.4167 62.5738 58.6032 63.375 58.7361C64.0163 58.8489 64.6595 58.95 65.301 59.0502C66.2463 59.1978 67.1874 59.3508 68.1131 59.5283C68.4585 59.5941 68.801 59.6651 69.1407 59.7414C69.2899 59.4999 69.4339 59.2557 69.5727 59.009C69.4895 58.9997 69.4063 58.9895 69.3232 58.981C68.8728 58.9342 68.4229 58.9003 67.9737 58.8692C67.5085 58.8371 67.0446 58.8082 66.5814 58.7702C66.2744 58.7452 65.9681 58.7165 65.6624 58.6802C64.9036 58.5998 64.1536 58.4517 63.4212 58.2378C62.7207 58.0258 62.0556 57.7108 61.4478 57.3032C61.1326 57.0918 60.8294 56.8672 60.5323 56.6349C60.6941 56.69 60.8572 56.7419 61.019 56.7954C61.7889 57.0279 62.5729 57.2109 63.3661 57.3433C64.001 57.4553 64.6377 57.5562 65.2726 57.6565C66.2085 57.8041 67.1395 57.9582 68.0563 58.1352C68.6577 58.2505 69.2518 58.3793 69.8346 58.5297C69.9766 58.2618 70.1126 57.9914 70.2426 57.7185C69.9846 57.6812 69.7269 57.6485 69.4695 57.6203C69.0253 57.5714 68.5812 57.5353 68.1383 57.5023C67.6795 57.4684 67.2214 57.4377 66.7645 57.3998C66.4615 57.3746 66.1592 57.3462 65.8574 57.311C65.1086 57.2328 64.3677 57.0916 63.6425 56.8891C62.9498 56.6887 62.2891 56.3908 61.6802 56.0045C61.3307 55.7821 60.9953 55.5433 60.6665 55.2965C60.7886 55.3355 60.9111 55.3735 61.0327 55.4127C61.7961 55.6389 62.5726 55.8184 63.3578 55.9502C63.9863 56.0614 64.6165 56.1622 65.245 56.2621C66.1706 56.4098 67.0922 56.5649 68.0002 56.7415C68.7516 56.8869 69.4928 57.0506 70.2144 57.2507C70.2872 57.27 70.3591 57.2908 70.4314 57.3117C70.5625 57.0201 70.6868 56.7262 70.8044 56.4301C70.7283 56.4166 70.6523 56.4023 70.5763 56.3898C70.2561 56.338 69.936 56.2957 69.6162 56.2595C69.1781 56.2085 68.7403 56.1701 68.3031 56.1353C67.8505 56.0995 67.3987 56.0675 66.9478 56.0292C66.6489 56.0038 66.3504 55.9759 66.0527 55.9417C65.3138 55.8655 64.582 55.7313 63.8642 55.5402C63.4374 55.4221 63.0211 55.2685 62.6199 55.0812C62.393 55.2382 62.1605 55.395 61.9178 55.5517C61.681 55.1769 61.4926 54.7736 61.3571 54.3514C61.1594 54.2198 60.9645 54.0847 60.7725 53.9458C60.8639 53.9739 60.9556 54.0016 61.0465 54.0302C61.123 54.0533 61.2003 54.0728 61.2771 54.0945C61.1467 53.6345 61.0547 53.1644 61.0021 52.6891L60.9953 52.6281C60.9585 52.3052 60.9409 51.9805 60.9425 51.6555C60.6938 51.802 60.4567 51.9673 60.2332 52.1499C60.1674 52.2036 60.1044 52.2584 60.0433 52.3135C59.8277 52.507 59.6297 52.7192 59.4514 52.9476C59.3574 53.0685 59.2719 53.1912 59.1931 53.3153C59.0798 53.4928 58.9783 53.6776 58.8893 53.8684C58.8087 54.0425 58.7383 54.2211 58.6782 54.4033C58.6196 54.5792 58.5702 54.758 58.53 54.939C58.4819 55.1592 58.4465 55.382 58.4242 55.6063C58.4109 55.7379 58.4019 55.8659 58.3971 55.9902C58.3483 56.6061 58.3777 56.9482 58.4252 57.1858C57.9509 57.4295 57.4386 57.6365 56.9465 57.9216C49.2849 62.3589 51.4561 67.0448 51.4561 67.0448C51.4561 67.0448 54.4655 70.1522 60.4672 67.5263C61.3156 67.1487 62.1314 66.7017 62.9062 66.1899C63.1336 66.0416 63.358 65.889 63.5795 65.7322C63.6302 65.6964 63.6812 65.6613 63.732 65.6252C63.8231 65.5591 63.9122 65.491 64.0023 65.4232C63.7644 65.3814 63.5286 65.3323 63.295 65.276C62.8658 64.9096 62.477 64.4983 62.1353 64.0492C62.5583 64.15 62.9846 64.2335 63.4108 64.3094C64.0776 64.4252 64.7467 64.527 65.4142 64.6271C66.3991 64.7747 67.3792 64.9233 68.3403 65.1025C69.0224 65.2288 69.693 65.3767 70.346 65.5611C70.7063 65.3544 71.0461 65.1137 71.3606 64.8422C70.8409 64.7064 70.3131 64.6031 69.7805 64.533C69.4326 64.4868 69.0853 64.4523 68.7386 64.4245C68.2634 64.386 67.7892 64.3612 67.3168 64.3374C66.8264 64.3129 66.3374 64.2893 65.8503 64.2525C65.5274 64.2282 65.2053 64.1983 64.884 64.1576C64.0851 64.0684 63.2982 63.8925 62.5373 63.6332C62.2139 63.5186 61.8998 63.3792 61.5979 63.2163C61.4671 62.9752 61.357 62.7234 61.2689 62.4636C61.2641 62.4493 61.2607 62.4347 61.2561 62.4203C61.9604 62.6297 62.677 62.7952 63.4018 62.9159C64.0622 63.0312 64.725 63.1326 65.3859 63.2327C66.3608 63.3803 67.3312 63.53 68.2834 63.7088C69.0669 63.849 69.8421 64.0319 70.6058 64.2564C70.8169 64.3183 71.0226 64.3914 71.2316 64.4573C71.3598 64.5077 71.4869 64.5604 71.6142 64.6127C71.8309 64.409 72.0369 64.1943 72.2313 63.9693C72.4258 63.7442 68.8957 64.0694 67.3734 62.964Z" fill="#B9625D"/>
</g>
<mask id="mask20_207_15" style="mask-type:luminance" maskUnits="userSpaceOnUse" x="37" y="29" width="36" height="40">
<path d="M37.7657 29.254H72.2312V68.5806H37.7657V29.254Z" fill="white"/>
</mask>
<g mask="url(#mask20_207_15)">
<path d="M69.7618 54.9001C69.3299 54.8471 68.8982 54.8064 68.4665 54.7698C68.0203 54.732 67.5746 54.6986 67.1298 54.6601C66.8348 54.6346 66.5403 54.607 66.2463 54.5738C65.5173 54.4999 64.7946 54.3725 64.0842 54.1929C64.0177 54.1753 63.952 54.1563 63.8863 54.1373C63.7125 54.278 63.5326 54.4181 63.3467 54.5578C63.9688 54.6682 64.5942 54.7688 65.2162 54.8691C66.1317 55.0167 67.0439 55.1731 67.9429 55.3492C68.6862 55.494 69.42 55.6559 70.1356 55.8506C70.3552 55.9078 70.5711 55.9718 70.7892 56.0308C70.8389 56.0473 70.8882 56.0647 70.9378 56.0811C71.0546 55.7687 71.1633 55.4545 71.2641 55.1385C71.0788 55.1006 70.8934 55.0649 70.708 55.0336C70.3927 54.9815 70.0772 54.9379 69.7618 54.9001Z" fill="#B9625D"/>
</g>
<mask id="mask21_207_15" style="mask-type:luminance" maskUnits="userSpaceOnUse" x="37" y="29" width="36" height="40">
<path d="M37.7657 29.254H72.2312V68.5806H37.7657V29.254Z" fill="white"/>
</mask>
<g mask="url(#mask21_207_15)">
<path d="M71.629 53.8334C71.3671 53.7741 71.1047 53.7217 70.8418 53.6763C70.5309 53.6226 70.2199 53.5777 69.909 53.5385C69.4833 53.4834 69.0576 53.4404 68.6322 53.402C68.1923 53.3623 67.7528 53.3274 67.314 53.2888C67.023 53.2631 66.7324 53.2359 66.4422 53.2037C66.0027 53.1552 65.5653 53.0943 65.1338 53.017C65.0063 53.1454 64.8753 53.2734 64.7384 53.4009C64.8887 53.4255 65.039 53.4502 65.1893 53.4748C66.0952 53.6225 66.9974 53.78 67.8876 53.9556C68.6228 54.1 69.349 54.26 70.0586 54.4493C70.2796 54.5057 70.4972 54.5683 70.7169 54.626C70.8893 54.6811 71.0607 54.738 71.2323 54.7945C71.2736 54.8102 71.3155 54.825 71.3572 54.8402C71.4573 54.506 71.5479 54.1704 71.629 53.8334Z" fill="#B9625D"/>
</g>
<mask id="mask22_207_15" style="mask-type:luminance" maskUnits="userSpaceOnUse" x="37" y="29" width="36" height="40">
<path d="M37.7657 29.254H72.2312V68.5806H37.7657V29.254Z" fill="white"/>
</mask>
<g mask="url(#mask22_207_15)">
<path d="M69.9801 53.0484C70.2025 53.1041 70.4219 53.1651 70.6431 53.2218C70.8143 53.2746 70.9846 53.329 71.155 53.3831C71.3214 53.4433 71.4912 53.4984 71.6568 53.5602L71.6891 53.5728C71.7686 53.2201 71.8371 52.8669 71.8949 52.513C71.5889 52.4392 71.2821 52.3747 70.9744 52.3194C70.668 52.2652 70.3616 52.2187 70.0551 52.178C69.6356 52.1208 69.2159 52.0756 68.7964 52.0356C68.3628 51.9941 67.9295 51.9579 67.4968 51.9189C67.2098 51.8931 66.9231 51.8662 66.6368 51.835C66.4914 51.8192 66.3462 51.8017 66.2012 51.7837C66.0967 51.9246 65.9885 52.0648 65.8739 52.2041C66.5299 52.3171 67.1839 52.4343 67.8309 52.563C68.5578 52.7064 69.2766 52.8646 69.9801 53.0484Z" fill="#B9625D"/>
</g>
<mask id="mask23_207_15" style="mask-type:luminance" maskUnits="userSpaceOnUse" x="37" y="29" width="36" height="40">
<path d="M37.7657 29.254H72.2312V68.5806H37.7657V29.254Z" fill="white"/>
</mask>
<g mask="url(#mask23_207_15)">
<path d="M70.2011 50.8178C69.7874 50.7584 69.3738 50.711 68.9605 50.6687C68.5333 50.6253 68.106 50.5877 67.6794 50.5485C67.4551 50.5279 67.2311 50.506 67.0072 50.4829C66.9243 50.6474 66.8352 50.8105 66.74 50.972C67.0858 51.0362 67.4311 51.1008 67.774 51.1694C68.4928 51.3128 69.2042 51.4693 69.9017 51.6478C70.1255 51.7026 70.3466 51.7622 70.5693 51.8173C70.7394 51.8679 70.9083 51.9198 71.0779 51.9715C71.2436 52.0286 71.4123 52.0812 71.5773 52.1396C71.6949 52.1845 71.8139 52.2278 71.9317 52.2729C71.9863 51.9049 72.0287 51.5369 72.0589 51.1689C71.7424 51.0903 71.425 51.0215 71.1066 50.9624C70.8051 50.9074 70.5031 50.86 70.2011 50.8178Z" fill="#B9625D"/>
</g>
<mask id="mask24_207_15" style="mask-type:luminance" maskUnits="userSpaceOnUse" x="37" y="29" width="36" height="40">
<path d="M37.7657 29.254H72.2312V68.5806H37.7657V29.254Z" fill="white"/>
</mask>
<g mask="url(#mask24_207_15)">
<path d="M72.1132 49.7972C71.8231 49.7255 71.5321 49.6618 71.2404 49.606C70.9433 49.5496 70.6459 49.5007 70.3484 49.4572C69.9415 49.3957 69.5336 49.346 69.1259 49.3021C68.7049 49.2569 68.2839 49.2178 67.8633 49.1783C67.7548 49.1682 67.6471 49.157 67.539 49.1467C67.4834 49.3353 67.4194 49.5211 67.3499 49.7052C67.4725 49.7294 67.5961 49.7517 67.7184 49.7764C68.4292 49.9193 69.1332 50.074 69.8246 50.247C70.0498 50.3013 70.2722 50.3591 70.4968 50.4134C70.6657 50.4618 70.8339 50.5112 71.0022 50.5604C71.1672 50.6146 71.3349 50.6645 71.4991 50.7197C71.6613 50.778 71.8267 50.8325 71.9867 50.8939C72.017 50.9047 72.0478 50.9154 72.0781 50.9261C72.1033 50.5489 72.115 50.1726 72.1132 49.7972Z" fill="#B9625D"/>
</g>
<mask id="mask25_207_15" style="mask-type:luminance" maskUnits="userSpaceOnUse" x="37" y="29" width="36" height="40">
<path d="M37.7657 29.254H72.2312V68.5806H37.7657V29.254Z" fill="white"/>
</mask>
<g mask="url(#mask25_207_15)">
<path d="M70.494 48.0966C70.093 48.033 69.6914 47.9813 69.2896 47.9353C68.8749 47.8882 68.4601 47.8477 68.0456 47.808C67.9686 47.8006 67.8918 47.7929 67.815 47.7855C67.7906 47.9917 67.7591 48.1951 67.7205 48.3958C68.403 48.5349 69.0798 48.6833 69.7458 48.8462C69.9724 48.8995 70.1969 48.9561 70.4227 49.009C70.5904 49.0551 70.7576 49.1021 70.9245 49.1489C71.0888 49.1999 71.2555 49.2473 71.4191 49.2992C71.5809 49.3539 71.7456 49.4053 71.9056 49.4627C71.973 49.4852 72.0412 49.5075 72.109 49.5298C72.1005 49.1497 72.0777 48.7714 72.0404 48.3949C71.8182 48.3421 71.5955 48.2935 71.3724 48.2491C71.0798 48.1917 70.787 48.1416 70.494 48.0966Z" fill="#B9625D"/>
</g>
<mask id="mask26_207_15" style="mask-type:luminance" maskUnits="userSpaceOnUse" x="37" y="29" width="36" height="40">
<path d="M37.7657 29.254H72.2312V68.5806H37.7657V29.254Z" fill="white"/>
</mask>
<g mask="url(#mask26_207_15)">
<path d="M70.64 46.7353C70.2452 46.6697 69.8496 46.6153 69.4538 46.5678C69.0454 46.5188 68.6368 46.4769 68.2283 46.437C68.1096 46.4254 67.991 46.4139 67.8724 46.4023C67.8786 46.6199 67.878 46.8344 67.8706 47.0458C68.4747 47.1716 69.0751 47.3031 69.6672 47.4444C69.8953 47.4969 70.1216 47.552 70.3487 47.6039C70.5153 47.6478 70.6816 47.6921 70.8476 47.7367C71.0112 47.7846 71.1768 47.8294 71.3399 47.8781C71.5013 47.9292 71.6654 47.9774 71.8251 48.0308C71.8851 48.0495 71.9454 48.0681 72.0059 48.0866C71.9598 47.7081 71.8996 47.332 71.8228 46.9596C71.7168 46.9362 71.6108 46.9131 71.5046 46.8918C71.2168 46.8332 70.9286 46.7818 70.64 46.7353Z" fill="#B9625D"/>
</g>
<mask id="mask27_207_15" style="mask-type:luminance" maskUnits="userSpaceOnUse" x="37" y="29" width="36" height="40">
<path d="M37.7657 29.254H72.2312V68.5806H37.7657V29.254Z" fill="white"/>
</mask>
<g mask="url(#mask27_207_15)">
<path d="M58.0642 40.4577C58.0083 40.5046 57.9528 40.5497 57.8974 40.5939C57.6387 40.8017 57.3669 40.9925 57.0836 41.1652C56.937 41.2541 56.7927 41.3351 56.6513 41.4068C56.3912 41.5393 56.1211 41.6512 55.8435 41.7413C55.571 41.8302 55.2911 41.8941 55.0071 41.9323C53.6299 42.1119 52.7625 41.5629 52.7625 41.5629C52.7625 41.5629 52.7835 41.6226 52.8278 41.7261C52.8772 41.8414 52.9558 42.0125 53.0673 42.218C53.2353 42.5276 53.4272 42.8236 53.6413 43.1034C54.0417 43.6323 54.5285 44.0899 55.0812 44.4569C55.3328 44.6218 55.5982 44.7644 55.8746 44.8832C56.5478 45.1686 57.272 45.3143 58.0033 45.3114C58.3697 45.3122 58.7355 45.2835 59.0973 45.2257C59.1787 45.2129 59.2578 45.1973 59.3371 45.1821C59.4629 45.1579 59.5863 45.1312 59.7066 45.1012C60.1979 44.9794 60.6735 44.8011 61.1239 44.5701C60.8246 44.4218 60.5272 44.2674 60.2316 44.1069C60.3026 44.1259 60.4125 44.1646 60.475 44.1794C60.6952 44.2404 60.9174 44.2958 61.1385 44.3521C61.2277 44.3747 61.3173 44.3951 61.4067 44.4165C61.7294 44.2301 62.0371 44.019 62.3273 43.7851C62.2408 43.7495 62.1542 43.7143 62.0681 43.6777C61.4809 43.4331 60.9012 43.1641 60.329 42.8707C60.1654 42.7873 60.0026 42.6994 59.8396 42.6124C59.8807 42.6249 59.9216 42.6374 59.9625 42.6499C60.006 42.663 60.0492 42.6765 60.0929 42.6893C60.1289 42.6978 60.1884 42.7182 60.2244 42.7268C60.2961 42.7437 60.4148 42.7844 60.4865 42.8014C60.7075 42.8607 60.9301 42.9148 61.1519 42.9694C61.7142 43.1076 62.2805 43.2243 62.8473 43.3323C63.0248 43.1647 63.1927 42.9926 63.3534 42.8189C62.9983 42.7033 62.6468 42.5786 62.2988 42.4447C61.7087 42.2219 61.126 41.9742 60.5507 41.7016C60.304 41.5852 60.0583 41.4646 59.8137 41.3398C59.6382 41.2516 59.4622 41.1616 59.2867 41.0721C59.344 41.09 59.4007 41.1089 59.4582 41.1264C59.6297 41.1802 59.804 41.2292 59.9776 41.2796C60.0208 41.292 60.0639 41.3046 60.1072 41.3167C60.1449 41.3256 60.2001 41.3434 60.2377 41.3523C60.3127 41.37 60.4229 41.4056 60.4979 41.4233C60.7196 41.4806 60.9427 41.5335 61.1651 41.5866C61.8636 41.7528 62.5672 41.8905 63.2704 42.0202C63.4941 42.0613 63.7179 42.1016 63.9417 42.1413C64.0563 42.0021 64.1672 41.8645 64.2746 41.7286L64.2347 41.7194C63.6568 41.5758 63.09 41.4047 62.5298 41.2115C61.9364 41.0106 61.3507 40.7841 60.7726 40.5322C60.5246 40.4245 60.2779 40.3124 60.0323 40.1958C59.6958 40.0393 59.36 39.8782 59.0228 39.7171L58.972 39.6931C58.7768 39.8346 58.5902 39.9875 58.4131 40.1511C58.2957 40.26 58.1796 40.3608 58.0642 40.4577Z" fill="#B9625D"/>
</g>
<mask id="mask28_207_15" style="mask-type:luminance" maskUnits="userSpaceOnUse" x="37" y="29" width="36" height="40">
<path d="M37.7657 29.254H72.2312V68.5806H37.7657V29.254Z" fill="white"/>
</mask>
<g mask="url(#mask28_207_15)">
<path d="M69.6192 45.2011C69.2172 45.1502 68.8147 45.107 68.4121 45.0668C68.1906 45.0447 67.9692 45.0236 67.7476 45.0022C67.7801 45.223 67.8066 45.4408 67.827 45.6554C68.4191 45.7795 69.0079 45.9081 69.5897 46.0436C69.8192 46.0954 70.0471 46.1489 70.2758 46.1996C70.4413 46.2412 70.6065 46.2831 70.7714 46.3252C70.9342 46.3701 71.0989 46.4123 71.2613 46.4578C71.4219 46.5052 71.5844 46.5499 71.7437 46.5991C71.6561 46.2265 71.5521 45.8581 71.4317 45.4937C71.217 45.4512 71.0021 45.4109 70.7869 45.3747C70.3986 45.3071 70.0092 45.2505 69.6192 45.2011Z" fill="#B9625D"/>
</g>
<mask id="mask29_207_15" style="mask-type:luminance" maskUnits="userSpaceOnUse" x="37" y="29" width="36" height="40">
<path d="M37.7657 29.254H72.2312V68.5806H37.7657V29.254Z" fill="white"/>
</mask>
<g mask="url(#mask29_207_15)">
<path d="M68.5947 43.6953C68.3317 43.6682 68.0686 43.6437 67.8057 43.6186C67.6896 43.6077 67.5736 43.5965 67.4578 43.5852C67.5142 43.7926 67.5654 44.0066 67.6113 44.2273C68.2492 44.3607 68.8825 44.4988 69.5115 44.6416C69.742 44.6925 69.9719 44.7446 70.2022 44.7941C70.3666 44.8336 70.5307 44.873 70.6945 44.9126C70.8567 44.9544 71.02 44.994 71.1821 45.0362C71.2154 45.0453 71.2487 45.0545 71.2821 45.0634C71.1487 44.7022 70.9983 44.3463 70.8309 43.9958C70.4823 43.9339 70.1331 43.8797 69.7832 43.833C69.3878 43.7804 68.9911 43.7358 68.5947 43.6953Z" fill="#B9625D"/>
</g>
<mask id="mask30_207_15" style="mask-type:luminance" maskUnits="userSpaceOnUse" x="37" y="29" width="36" height="40">
<path d="M37.7657 29.254H72.2312V68.5806H37.7657V29.254Z" fill="white"/>
</mask>
<g mask="url(#mask30_207_15)">
<path d="M68.0004 42.2496C67.6469 42.2168 67.2938 42.1848 66.9421 42.1497C67.0317 42.3445 67.1158 42.5474 67.1942 42.7585C67.2745 42.7752 67.355 42.7917 67.4352 42.8085C68.1054 42.9492 68.772 43.0947 69.4332 43.2407C69.6655 43.2908 69.8968 43.3414 70.1286 43.3899C70.2778 43.4238 70.4269 43.4577 70.5758 43.4916C70.3899 43.144 70.1859 42.8031 69.9637 42.4689L69.9475 42.4664C69.5581 42.4122 69.1677 42.3657 68.7776 42.325C68.5186 42.298 68.2594 42.2736 68.0004 42.2496Z" fill="#B9625D"/>
</g>
<mask id="mask31_207_15" style="mask-type:luminance" maskUnits="userSpaceOnUse" x="37" y="29" width="36" height="40">
<path d="M37.7657 29.254H72.2312V68.5806H37.7657V29.254Z" fill="white"/>
</mask>
<g mask="url(#mask31_207_15)">
<path d="M59.9942 39.9093C60.0372 39.9209 60.0801 39.9327 60.1231 39.944C60.1623 39.9533 60.2133 39.9686 60.2526 39.9779C60.3309 39.9965 60.4326 40.0268 60.5108 40.0452C60.7333 40.1006 60.9568 40.1524 61.1799 40.2038C61.872 40.363 62.5678 40.4985 63.2632 40.6271C63.8143 40.7288 64.3657 40.8263 64.916 40.9255C65.0215 40.7971 65.1253 40.6749 65.2283 40.5605C64.973 40.5193 64.7197 40.4739 64.4683 40.4204C63.8915 40.298 63.3227 40.1506 62.7617 39.9782C62.1654 39.7991 61.5766 39.5939 60.9955 39.3627C60.7463 39.2637 60.4985 39.1601 60.252 39.0518L60.1851 39.0226C59.7827 39.1822 59.4007 39.389 59.047 39.6385C59.1897 39.6819 59.3331 39.7243 59.4771 39.7658C59.6484 39.8158 59.8218 39.8621 59.9942 39.9093Z" fill="#B9625D"/>
</g>
<mask id="mask32_207_15" style="mask-type:luminance" maskUnits="userSpaceOnUse" x="37" y="29" width="36" height="40">
<path d="M37.7657 29.254H72.2312V68.5806H37.7657V29.254Z" fill="white"/>
</mask>
<g mask="url(#mask32_207_15)">
<path d="M67.3785 41.416C68.0406 41.5562 68.6998 41.6998 69.3549 41.8404C69.4193 41.854 69.4838 41.867 69.548 41.8805C69.2778 41.5181 69.0243 41.2041 68.7876 40.9386C68.5901 40.9183 68.3926 40.8989 68.1951 40.8811C67.5598 40.8239 66.9249 40.7742 66.2969 40.7052C66.2135 40.696 66.1307 40.6854 66.0476 40.6754C66.1865 40.8504 66.3165 41.0323 66.4372 41.2203C66.7515 41.2845 67.0652 41.3497 67.3785 41.416Z" fill="#B9625D"/>
</g>
<mask id="mask33_207_15" style="mask-type:luminance" maskUnits="userSpaceOnUse" x="37" y="29" width="36" height="40">
<path d="M37.7657 29.254H72.2312V68.5806H37.7657V29.254Z" fill="white"/>
</mask>
<g mask="url(#mask33_207_15)">
<path d="M63.2543 39.2335C63.7667 39.3284 64.2789 39.4202 64.7905 39.5134C63.6781 38.7695 62.3133 38.5041 61.0032 38.777C61.0665 38.7913 61.1297 38.8065 61.1931 38.8206C61.8787 38.9729 62.5667 39.1061 63.2543 39.2335Z" fill="#B9625D"/>
</g>
<mask id="mask34_207_15" style="mask-type:luminance" maskUnits="userSpaceOnUse" x="37" y="29" width="36" height="40">
<path d="M37.7657 29.254H72.2312V68.5806H37.7657V29.254Z" fill="white"/>
</mask>
<g mask="url(#mask34_207_15)">
<path d="M67.9882 40.1653C67.2575 39.5856 66.6842 39.5241 66.1588 39.7784C66.5471 39.8578 66.9346 39.9391 67.3214 40.0226C67.5441 40.0699 67.7664 40.1175 67.9882 40.1653Z" fill="#B9625D"/>
</g>
</g>
</svg>
